<svg xmlns="http://www.w3.org/2000/svg" xmlns:xlink="http://www.w3.org/1999/xlink" width="500" zoomAndPan="magnify" viewBox="0 0 375 374.999991" height="500" preserveAspectRatio="xMidYMid meet" version="1.0"><rect x="-37.5" width="450" fill="#ffffff" y="-37.499999" height="449.999989" fill-opacity="1"/><rect x="-37.5" width="450" fill="#ffffff" y="-37.499999" height="449.999989" fill-opacity="1"/><rect x="-37.5" width="450" fill="#ffffff" y="-37.499999" height="449.999989" fill-opacity="1"/><path fill="#2a133a" d="M 208.351562 128.441406 L 218.628906 128.441406 L 218.628906 95.566406 L 214.664062 95.566406 L 214.664062 87.933594 L 160.65625 87.933594 L 160.65625 95.5625 L 156.695312 95.5625 L 156.695312 128.4375 L 166.96875 128.4375 L 144.949219 172.46875 L 183.257812 278.140625 L 183.257812 287.382812 L 186.339844 287.382812 L 186.339844 199.230469 C 180.261719 198.46875 175.554688 193.285156 175.554688 187 C 175.554688 180.714844 180.261719 175.527344 186.339844 174.769531 L 186.339844 128.441406 L 188.980469 128.441406 L 188.980469 174.769531 C 195.0625 175.527344 199.769531 180.714844 199.769531 187 C 199.769531 193.285156 195.0625 198.46875 188.980469 199.230469 L 188.980469 287.386719 L 192.0625 287.386719 L 192.0625 278.140625 L 230.371094 172.46875 Z M 208.351562 128.441406 " fill-opacity="1" fill-rule="nonzero"/></svg>